<?xml version="1.0" encoding="UTF-8" standalone="no" ?>
<!DOCTYPE svg PUBLIC "-//W3C//DTD SVG 1.1//EN" "http://www.w3.org/Graphics/SVG/1.1/DTD/svg11.dtd">
<svg xmlns="http://www.w3.org/2000/svg" xmlns:xlink="http://www.w3.org/1999/xlink" version="1.1" width="640" height="640" viewBox="0 0 640 640" xml:space="preserve">
<desc>Created with Fabric.js 4.6.0</desc>
<defs>
</defs>
<g transform="matrix(1 0 0 1 320 320)" id="Law2JODfcXmVlXlN7aU0l"  >
<path style="stroke: none; stroke-width: 1; stroke-dasharray: none; stroke-linecap: butt; stroke-dashoffset: 0; stroke-linejoin: miter; stroke-miterlimit: 4; fill: rgb(185,209,225); fill-rule: evenodd; opacity: 1;" vector-effect="non-scaling-stroke"  transform=" translate(0, 0)" d="M 11.16 -42.72 L 53.53 -42.72 C 55.58 -42.72 57.42 -41.879999999999995 58.75 -40.54 C 60.09 -39.199999999999996 60.93 -37.339999999999996 60.93 -35.32 L 60.93 54.04 C 60.93 56.089999999999996 60.089999999999996 57.93 58.75 59.26 C 57.41 60.6 55.55 61.44 53.53 61.44 L -36.45 61.44 C -38.5 61.44 -40.34 60.599999999999994 -41.67 59.26 C -43.010000000000005 57.919999999999995 -43.85 56.059999999999995 -43.85 54.04 L -43.85 10.019999999999996 C -41.38 11.019999999999996 -38.800000000000004 11.799999999999995 -36.13 12.309999999999995 L -36.13 32.589999999999996 L -36.1 32.589999999999996 L -36.1 32.589999999999996 C -23.21 20.259999999999998 -14.670000000000002 14.169999999999995 -1.8500000000000014 3.759999999999998 C -1.8000000000000014 3.809999999999998 -1.7500000000000013 3.859999999999998 -1.7000000000000015 3.909999999999998 C -1.6700000000000015 3.9399999999999977 -1.6700000000000015 3.969999999999998 -1.6400000000000015 3.969999999999998 L 25.18 35.699999999999996 L 29.28 10.459999999999997 C 29.560000000000002 8.839999999999996 31.080000000000002 7.729999999999997 32.7 8.009999999999998 C 33.32 8.099999999999998 33.88 8.409999999999998 34.32 8.819999999999999 L 53.14 28.589999999999996 L 53.14 -33.53 C 53.14 -33.93 52.980000000000004 -34.28 52.7 -34.52 C 52.45 -34.77 52.080000000000005 -34.96 51.71 -34.96 L 13.119999999999997 -34.96 C 12.709999999999997 -37.64 12.049999999999997 -40.230000000000004 11.159999999999997 -42.72 z M -28.14 -61.44 C -10.030000000000001 -61.44 4.649999999999999 -46.76 4.649999999999999 -28.65 C 4.649999999999999 -10.54 -10.030000000000001 4.140000000000001 -28.14 4.140000000000001 C -46.25 4.140000000000001 -60.93 -10.54 -60.93 -28.65 C -60.93 -46.76 -46.25 -61.44 -28.14 -61.44 z M -45.56 -28.07 L -34.52 -28.07 L -34.52 -12.31 L -22.070000000000004 -12.31 L -22.070000000000004 -28.07 L -10.710000000000004 -28.07 L -28.130000000000006 -45 L -45.56 -28.07 z M 33.34 -25.78 C 36.290000000000006 -25.78 39 -24.57 40.92 -22.64 C 42.88 -20.68 44.06 -18.01 44.06 -15.05 C 44.06 -12.100000000000001 42.85 -9.39 40.92 -7.470000000000001 C 38.96 -5.510000000000001 36.29 -4.33 33.34 -4.33 C 30.390000000000004 -4.33 27.680000000000003 -5.54 25.750000000000004 -7.470000000000001 C 23.790000000000003 -9.43 22.610000000000003 -12.100000000000001 22.610000000000003 -15.05 C 22.610000000000003 -18 23.820000000000004 -20.700000000000003 25.750000000000004 -22.64 C 27.720000000000002 -24.6 30.390000000000004 -25.78 33.34 -25.78 L 33.34 -25.78 z" stroke-linecap="round" />
</g>
</svg>